<?xml version="1.0" encoding="UTF-8" ?>
<!DOCTYPE svg PUBLIC "-//W3C//DTD SVG 1.1//EN" "http://www.w3.org/Graphics/SVG/1.1/DTD/svg11.dtd">
<svg width="260pt" height="280pt" viewBox="0 0 260 280" version="1.1" xmlns="http://www.w3.org/2000/svg">
<g id="#ffffffff">
<path fill="#ffffff" opacity="1.00" d=" M 0.00 0.00 L 260.00 0.00 L 260.00 280.00 L 0.00 280.00 L 0.00 0.00 M 120.41 63.57 C 116.39 64.73 116.95 69.72 117.46 72.93 C 118.63 76.21 122.47 75.87 125.28 75.87 C 125.28 78.00 125.28 80.13 125.29 82.25 C 106.00 83.35 87.22 91.94 73.94 106.00 C 60.71 119.69 53.10 138.58 53.16 157.62 C 104.38 157.60 155.61 157.62 206.84 157.61 C 206.92 138.11 198.91 118.77 185.10 105.01 C 171.90 91.51 153.54 83.34 134.71 82.25 C 134.71 80.13 134.72 78.01 134.72 75.89 C 137.35 75.72 140.88 76.37 142.28 73.46 C 143.14 71.04 143.03 68.18 142.32 65.73 C 140.67 62.62 136.83 63.46 133.95 63.36 C 129.44 63.53 124.90 63.09 120.41 63.57 M 53.40 166.07 C 52.91 170.49 51.64 175.16 48.11 178.14 C 45.68 180.62 42.16 181.37 38.83 181.57 C 38.85 186.58 38.85 191.59 38.85 196.61 C 99.62 196.63 160.39 196.65 221.16 196.60 C 221.16 191.57 221.15 186.54 221.16 181.52 C 217.84 181.35 214.32 180.64 211.90 178.16 C 208.39 175.16 207.08 170.51 206.61 166.08 C 155.54 166.17 104.47 166.18 53.40 166.07 M 112.73 269.89 C 110.89 269.13 109.06 269.17 107.26 270.03 C 108.11 270.44 109.21 271.59 109.97 270.07 C 110.75 270.12 112.31 270.21 113.08 270.26 C 113.15 271.18 113.28 273.02 113.35 273.93 C 110.13 273.91 106.76 272.39 103.69 274.07 C 102.51 273.36 101.63 270.91 103.49 270.41 C 104.55 269.70 108.19 267.33 103.13 269.35 C 100.39 270.26 101.33 275.01 104.31 274.96 C 105.63 274.33 107.03 273.90 108.46 273.55 L 108.45 274.84 C 110.29 274.67 112.14 274.44 114.00 274.46 C 114.02 273.71 114.06 272.20 114.08 271.45 C 114.82 272.57 115.55 273.70 116.25 274.85 C 117.55 274.75 118.86 274.68 120.16 274.63 L 119.90 274.04 C 118.75 274.12 117.60 274.18 116.45 274.23 C 115.09 272.19 115.72 270.30 117.09 268.52 C 116.02 269.43 114.95 270.34 113.90 271.28 C 113.81 269.25 113.63 267.23 113.36 265.22 C 112.87 266.73 112.84 268.32 112.73 269.89 M 75.00 269.39 C 74.32 269.33 72.97 269.20 72.30 269.14 C 72.29 271.17 73.31 274.17 70.24 274.26 C 69.91 272.26 69.75 270.23 69.15 268.29 C 68.98 270.47 69.22 272.64 69.31 274.82 C 70.65 274.73 71.99 274.63 73.34 274.55 C 73.46 273.06 72.98 271.37 74.09 270.16 C 76.57 269.16 74.73 273.69 75.45 275.01 C 76.43 274.77 77.42 274.52 78.40 274.27 C 77.82 274.12 76.65 273.81 76.06 273.66 C 76.10 272.70 76.18 270.78 76.22 269.82 C 76.96 269.80 78.45 269.77 79.19 269.76 C 79.22 271.41 79.27 273.07 79.34 274.72 C 80.08 274.79 81.57 274.92 82.31 274.98 C 81.78 274.65 80.72 273.99 80.19 273.65 C 80.15 272.49 80.11 271.34 80.06 270.18 C 80.67 270.09 81.89 269.89 82.50 269.79 C 81.97 269.58 80.90 269.18 80.36 268.97 C 80.12 268.16 79.88 267.35 79.63 266.55 C 79.51 267.23 79.28 268.59 79.16 269.27 C 78.44 269.20 77.00 269.06 76.28 268.99 C 76.17 268.37 75.94 267.13 75.83 266.51 C 75.62 267.23 75.21 268.67 75.00 269.39 M 98.98 266.68 C 98.63 267.34 97.95 268.64 97.60 269.30 C 98.00 271.09 98.24 272.92 98.49 274.74 C 99.20 274.81 100.63 274.96 101.34 275.04 C 100.77 274.67 99.62 273.94 99.05 273.57 C 98.97 271.66 98.96 269.69 101.27 269.17 C 100.76 269.15 99.75 269.10 99.25 269.08 C 99.16 268.28 99.07 267.48 98.98 266.68 M 150.68 272.78 C 151.10 275.29 153.66 274.77 155.51 274.52 C 156.25 272.09 155.26 270.12 152.73 269.55 C 153.59 268.57 154.42 267.57 155.22 266.54 C 152.88 267.67 150.69 270.10 150.68 272.78 M 155.60 267.55 C 157.34 267.84 159.09 268.04 160.86 268.14 C 159.56 270.58 158.21 273.02 157.32 275.65 C 159.58 273.40 160.59 270.29 161.96 267.49 C 163.59 267.74 165.23 267.95 166.87 268.12 C 165.69 270.36 164.55 272.61 163.32 274.83 C 163.61 274.82 164.19 274.80 164.48 274.79 C 165.70 272.22 166.95 269.66 168.17 267.10 C 163.99 267.17 159.72 266.68 155.60 267.55 M 168.11 268.71 C 169.46 268.97 171.52 267.25 172.43 268.81 C 172.06 269.25 171.31 270.12 170.94 270.56 C 172.73 271.30 173.33 272.62 171.99 274.22 C 170.61 273.76 169.29 273.17 167.93 272.64 C 168.88 273.71 169.96 274.68 171.40 275.01 C 172.71 274.30 174.09 273.77 175.50 273.30 L 175.41 274.83 C 176.00 274.80 177.18 274.73 177.77 274.69 C 178.99 274.17 180.25 273.73 181.52 273.33 L 181.32 274.64 C 182.20 274.72 183.96 274.88 184.83 274.96 L 184.16 273.82 C 185.38 273.77 186.59 273.73 187.81 273.70 L 187.47 275.16 C 188.73 274.91 189.98 274.60 191.21 274.22 C 191.84 273.00 191.44 271.65 191.28 270.39 C 190.97 269.53 192.23 267.43 190.65 267.42 C 188.82 266.46 187.28 267.98 186.08 269.15 C 187.79 268.48 189.56 267.78 191.37 268.66 C 190.73 269.09 189.44 269.96 188.80 270.40 C 190.75 271.16 191.21 272.36 190.17 274.00 C 187.89 274.13 186.42 271.95 184.60 270.91 C 184.67 269.54 184.73 268.18 184.79 266.83 C 183.12 267.18 181.42 267.61 180.15 268.83 C 181.66 268.51 183.16 268.15 184.66 267.76 C 184.15 268.72 183.63 269.68 183.10 270.64 C 185.20 271.15 185.23 273.63 183.14 274.13 C 181.52 273.07 179.96 271.92 178.36 270.85 C 178.76 270.30 179.56 269.21 179.95 268.66 C 178.39 266.49 175.78 267.08 174.14 268.83 C 175.89 268.42 177.68 267.98 179.47 268.60 C 178.84 269.04 177.60 269.92 176.98 270.36 C 177.92 271.19 179.12 272.04 178.68 273.48 C 176.33 275.01 174.58 271.85 172.63 270.94 C 172.65 269.54 172.67 268.14 172.67 266.75 C 171.07 267.20 169.47 267.72 168.11 268.71 M 192.36 269.62 C 193.62 268.91 194.84 268.08 196.29 267.78 C 197.57 271.00 193.76 272.69 192.16 274.91 C 194.35 274.83 196.60 275.04 198.74 274.43 C 197.61 274.29 195.34 274.00 194.21 273.86 C 195.75 272.19 198.28 270.45 197.35 267.85 C 195.45 266.21 193.10 267.56 192.36 269.62 M 199.33 267.26 C 199.30 269.42 198.36 272.59 201.83 271.99 C 200.94 273.11 200.06 274.24 199.27 275.43 C 201.87 274.00 204.47 270.84 203.23 267.73 C 202.00 267.18 200.63 267.30 199.33 267.26 M 83.55 274.52 C 84.92 275.23 86.33 274.47 87.66 274.09 C 85.95 273.71 83.34 274.43 83.20 271.92 C 84.06 271.87 85.78 271.78 86.64 271.73 C 88.59 271.83 88.88 274.13 89.72 275.48 C 89.36 272.69 89.67 270.03 92.43 268.65 C 91.12 269.03 89.86 269.54 88.66 270.18 C 87.57 269.81 82.63 272.52 84.36 270.24 C 84.79 270.02 85.65 269.57 86.08 269.35 C 82.89 267.94 81.44 272.68 83.55 274.52 M 121.56 272.26 C 121.23 275.30 125.41 275.53 126.92 273.58 C 128.21 276.01 132.29 274.75 131.67 272.00 C 132.15 269.20 128.41 268.15 126.92 270.39 C 125.23 268.20 120.88 269.02 121.56 272.26 M 132.64 269.40 C 132.76 271.53 132.80 273.67 133.17 275.78 C 134.04 273.54 132.74 269.77 136.23 269.73 C 136.18 271.46 136.15 273.19 136.12 274.93 L 137.01 274.98 C 137.28 272.98 136.24 269.98 139.15 269.64 C 139.34 271.67 139.47 273.71 139.82 275.74 C 140.46 273.68 140.67 271.40 139.88 269.36 C 137.46 269.33 135.05 269.41 132.64 269.40 Z" />
<path fill="#ffffff" opacity="1.00" d=" M 86.84 107.85 C 95.71 99.42 107.84 94.64 120.06 94.49 C 121.76 94.03 122.59 95.47 123.43 96.64 C 123.08 97.19 122.38 98.29 122.03 98.84 C 109.39 98.82 96.73 103.77 88.03 113.05 C 82.05 119.31 77.96 127.37 76.55 135.92 C 76.06 138.76 76.18 141.68 75.54 144.49 C 74.27 145.48 72.80 144.76 71.44 144.46 C 70.91 130.78 76.74 117.07 86.84 107.85 Z" />
<path fill="#ffffff" opacity="1.00" d=" M 200.21 268.40 C 201.56 266.95 203.69 269.26 202.34 270.60 C 201.01 272.24 198.84 269.72 200.21 268.40 Z" />
<path fill="#ffffff" opacity="1.00" d=" M 122.85 270.33 C 124.51 269.37 126.06 270.05 126.16 272.01 C 126.00 273.93 124.28 274.36 122.68 273.73 C 122.40 272.56 122.45 271.43 122.85 270.33 Z" />
<path fill="#ffffff" opacity="1.00" d=" M 127.94 274.24 C 127.77 272.58 126.96 269.17 129.83 270.13 C 131.86 271.47 130.53 274.63 127.94 274.24 Z" />
<path fill="#ffffff" opacity="1.00" d=" M 152.13 271.45 C 153.46 270.10 155.88 272.17 154.36 273.54 C 153.05 274.92 150.53 272.79 152.13 271.45 Z" />
</g>
<g id="#000000ff">
<path fill="#000000" opacity="1.00" d=" M 120.41 63.57 C 124.90 63.09 129.44 63.53 133.95 63.36 C 136.83 63.46 140.67 62.62 142.32 65.73 C 143.03 68.18 143.14 71.04 142.28 73.46 C 140.88 76.37 137.35 75.72 134.72 75.89 C 134.72 78.01 134.71 80.13 134.71 82.25 C 153.54 83.34 171.90 91.51 185.10 105.01 C 198.91 118.77 206.92 138.11 206.84 157.61 C 155.61 157.62 104.38 157.60 53.16 157.62 C 53.10 138.58 60.71 119.69 73.94 106.00 C 87.22 91.94 106.00 83.35 125.29 82.25 C 125.28 80.13 125.28 78.00 125.28 75.87 C 122.47 75.87 118.63 76.21 117.46 72.93 C 116.95 69.72 116.39 64.73 120.41 63.57 M 86.84 107.85 C 76.74 117.07 70.91 130.78 71.44 144.46 C 72.80 144.76 74.27 145.48 75.54 144.49 C 76.18 141.68 76.06 138.76 76.55 135.92 C 77.96 127.37 82.05 119.31 88.03 113.05 C 96.73 103.77 109.39 98.82 122.03 98.84 C 122.38 98.29 123.08 97.19 123.43 96.64 C 122.59 95.47 121.76 94.03 120.06 94.49 C 107.84 94.64 95.71 99.42 86.84 107.85 Z" />
<path fill="#000000" opacity="1.00" d=" M 53.40 166.07 C 104.47 166.18 155.54 166.17 206.61 166.08 C 207.08 170.51 208.39 175.16 211.90 178.16 C 214.32 180.64 217.84 181.35 221.16 181.52 C 221.15 186.54 221.16 191.57 221.16 196.60 C 160.39 196.65 99.62 196.63 38.85 196.61 C 38.85 191.59 38.85 186.58 38.83 181.57 C 42.16 181.37 45.68 180.62 48.11 178.14 C 51.64 175.16 52.91 170.49 53.40 166.07 Z" />
<path fill="#000000" opacity="1.00" d=" M 112.73 269.89 C 112.84 268.32 112.87 266.73 113.36 265.22 C 113.63 267.23 113.81 269.25 113.90 271.28 C 114.95 270.34 116.02 269.43 117.09 268.52 C 115.72 270.30 115.09 272.19 116.45 274.23 C 117.60 274.18 118.75 274.12 119.90 274.04 L 120.16 274.63 C 118.86 274.68 117.55 274.75 116.25 274.85 C 115.55 273.70 114.82 272.57 114.08 271.45 C 114.06 272.20 114.02 273.71 114.00 274.46 C 112.14 274.44 110.29 274.67 108.45 274.84 L 108.46 273.55 C 107.03 273.90 105.63 274.33 104.31 274.96 C 101.33 275.01 100.39 270.26 103.13 269.35 C 108.19 267.33 104.55 269.70 103.49 270.41 C 101.63 270.91 102.51 273.36 103.69 274.07 C 106.76 272.39 110.13 273.91 113.35 273.93 C 113.28 273.02 113.15 271.18 113.08 270.26 C 112.31 270.21 110.75 270.12 109.97 270.07 C 109.21 271.59 108.11 270.44 107.26 270.03 C 109.06 269.17 110.89 269.13 112.73 269.89 Z" />
<path fill="#000000" opacity="1.00" d=" M 75.00 269.39 C 75.21 268.67 75.62 267.23 75.83 266.51 C 75.94 267.13 76.17 268.37 76.28 268.99 C 77.00 269.06 78.44 269.20 79.16 269.27 C 79.28 268.59 79.51 267.23 79.63 266.55 C 79.88 267.35 80.12 268.16 80.36 268.97 C 80.90 269.18 81.97 269.58 82.50 269.79 C 81.89 269.89 80.67 270.09 80.06 270.18 C 80.11 271.34 80.15 272.49 80.19 273.65 C 80.72 273.99 81.78 274.65 82.31 274.98 C 81.57 274.92 80.08 274.79 79.34 274.72 C 79.27 273.07 79.22 271.41 79.19 269.76 C 78.45 269.77 76.96 269.80 76.22 269.82 C 76.18 270.78 76.10 272.70 76.06 273.66 C 76.65 273.81 77.82 274.12 78.40 274.27 C 77.42 274.52 76.43 274.77 75.45 275.01 C 74.73 273.69 76.57 269.16 74.09 270.16 C 72.98 271.37 73.46 273.06 73.34 274.55 C 71.99 274.63 70.65 274.73 69.31 274.82 C 69.22 272.64 68.98 270.47 69.15 268.29 C 69.75 270.23 69.91 272.26 70.24 274.26 C 73.31 274.17 72.29 271.17 72.30 269.14 C 72.97 269.20 74.32 269.33 75.00 269.39 Z" />
<path fill="#000000" opacity="1.00" d=" M 98.98 266.68 C 99.07 267.48 99.16 268.28 99.25 269.08 C 99.75 269.10 100.76 269.15 101.27 269.17 C 98.96 269.69 98.97 271.66 99.05 273.57 C 99.62 273.94 100.77 274.67 101.34 275.04 C 100.63 274.96 99.20 274.81 98.49 274.74 C 98.24 272.92 98.00 271.09 97.60 269.30 C 97.95 268.64 98.63 267.34 98.98 266.68 Z" />
<path fill="#000000" opacity="1.00" d=" M 150.68 272.78 C 150.69 270.10 152.88 267.67 155.22 266.54 C 154.42 267.57 153.59 268.57 152.73 269.55 C 155.26 270.12 156.25 272.09 155.51 274.52 C 153.66 274.77 151.10 275.29 150.68 272.78 M 152.13 271.45 C 150.53 272.79 153.05 274.92 154.36 273.54 C 155.88 272.17 153.46 270.10 152.13 271.45 Z" />
<path fill="#000000" opacity="1.00" d=" M 155.60 267.55 C 159.72 266.68 163.99 267.17 168.17 267.10 C 166.95 269.66 165.70 272.22 164.48 274.79 C 164.19 274.80 163.61 274.82 163.32 274.83 C 164.55 272.61 165.69 270.36 166.87 268.12 C 165.23 267.95 163.59 267.74 161.96 267.49 C 160.59 270.29 159.58 273.40 157.32 275.65 C 158.21 273.02 159.56 270.58 160.86 268.14 C 159.09 268.04 157.34 267.84 155.60 267.55 Z" />
<path fill="#000000" opacity="1.00" d=" M 168.11 268.71 C 169.47 267.72 171.07 267.20 172.67 266.75 C 172.67 268.14 172.65 269.54 172.63 270.94 C 174.58 271.85 176.33 275.01 178.68 273.48 C 179.12 272.04 177.92 271.19 176.98 270.36 C 177.60 269.92 178.84 269.04 179.47 268.60 C 177.68 267.98 175.89 268.42 174.14 268.83 C 175.78 267.08 178.39 266.49 179.95 268.66 C 179.56 269.21 178.76 270.30 178.36 270.85 C 179.96 271.92 181.52 273.07 183.14 274.13 C 185.23 273.63 185.20 271.15 183.10 270.64 C 183.63 269.68 184.15 268.72 184.66 267.76 C 183.16 268.15 181.66 268.51 180.15 268.83 C 181.42 267.61 183.12 267.18 184.79 266.83 C 184.73 268.18 184.67 269.54 184.60 270.91 C 186.42 271.95 187.89 274.13 190.17 274.00 C 191.21 272.36 190.75 271.16 188.80 270.40 C 189.44 269.96 190.73 269.09 191.37 268.66 C 189.56 267.78 187.79 268.48 186.08 269.15 C 187.28 267.98 188.82 266.46 190.65 267.42 C 192.23 267.43 190.97 269.53 191.28 270.39 C 191.44 271.65 191.84 273.00 191.21 274.22 C 189.98 274.60 188.73 274.91 187.47 275.16 L 187.81 273.70 C 186.59 273.73 185.38 273.77 184.16 273.82 L 184.83 274.96 C 183.96 274.88 182.20 274.72 181.32 274.64 L 181.52 273.33 C 180.25 273.73 178.99 274.17 177.77 274.69 C 177.18 274.73 176.00 274.80 175.41 274.83 L 175.50 273.30 C 174.09 273.77 172.71 274.30 171.40 275.01 C 169.96 274.68 168.88 273.71 167.93 272.64 C 169.29 273.17 170.61 273.76 171.99 274.22 C 173.33 272.62 172.73 271.30 170.94 270.56 C 171.31 270.12 172.06 269.25 172.43 268.81 C 171.52 267.25 169.46 268.97 168.11 268.71 Z" />
<path fill="#000000" opacity="1.00" d=" M 192.36 269.62 C 193.10 267.56 195.45 266.21 197.35 267.85 C 198.28 270.45 195.75 272.19 194.21 273.86 C 195.34 274.00 197.61 274.29 198.74 274.43 C 196.60 275.04 194.35 274.83 192.16 274.91 C 193.76 272.69 197.57 271.00 196.29 267.78 C 194.84 268.08 193.62 268.91 192.36 269.62 Z" />
<path fill="#000000" opacity="1.00" d=" M 199.33 267.26 C 200.63 267.30 202.00 267.18 203.23 267.73 C 204.47 270.84 201.87 274.00 199.27 275.43 C 200.06 274.24 200.94 273.11 201.83 271.99 C 198.36 272.59 199.30 269.42 199.33 267.26 M 200.21 268.40 C 198.84 269.72 201.01 272.24 202.34 270.60 C 203.69 269.26 201.56 266.95 200.21 268.40 Z" />
<path fill="#000000" opacity="1.00" d=" M 83.55 274.52 C 81.44 272.68 82.89 267.94 86.08 269.35 C 85.65 269.57 84.79 270.02 84.36 270.24 C 82.63 272.52 87.57 269.81 88.66 270.18 C 89.86 269.54 91.12 269.03 92.43 268.65 C 89.67 270.03 89.36 272.69 89.72 275.48 C 88.88 274.13 88.59 271.83 86.64 271.73 C 85.78 271.78 84.06 271.87 83.20 271.92 C 83.34 274.43 85.95 273.71 87.66 274.09 C 86.33 274.47 84.92 275.23 83.55 274.52 Z" />
<path fill="#000000" opacity="1.00" d=" M 121.56 272.26 C 120.88 269.02 125.23 268.20 126.92 270.39 C 128.41 268.15 132.15 269.20 131.67 272.00 C 132.29 274.75 128.21 276.01 126.92 273.58 C 125.41 275.53 121.23 275.30 121.56 272.26 M 122.85 270.33 C 122.45 271.43 122.40 272.56 122.68 273.73 C 124.28 274.36 126.00 273.93 126.16 272.01 C 126.06 270.05 124.51 269.37 122.85 270.33 M 127.94 274.24 C 130.53 274.63 131.86 271.47 129.83 270.13 C 126.96 269.17 127.77 272.58 127.94 274.24 Z" />
<path fill="#000000" opacity="1.00" d=" M 132.64 269.40 C 135.05 269.41 137.46 269.33 139.88 269.36 C 140.67 271.40 140.46 273.68 139.82 275.74 C 139.47 273.71 139.34 271.67 139.15 269.64 C 136.24 269.98 137.28 272.98 137.01 274.98 L 136.12 274.93 C 136.15 273.19 136.18 271.46 136.23 269.73 C 132.74 269.77 134.04 273.54 133.17 275.78 C 132.80 273.67 132.76 271.53 132.64 269.40 Z" />
</g>
</svg>
